<?xml version="1.0" encoding="UTF-8"?>
<!DOCTYPE svg PUBLIC "-//W3C//DTD SVG 1.1//EN" "http://www.w3.org/Graphics/SVG/1.1/DTD/svg11.dtd">
<!-- Creator: CorelDRAW X7 -->
<svg xmlns="http://www.w3.org/2000/svg" xml:space="preserve" width="55.8798mm" height="53.4246mm" version="1.1" style="shape-rendering:geometricPrecision; text-rendering:geometricPrecision; image-rendering:optimizeQuality; fill-rule:evenodd; clip-rule:evenodd"
viewBox="0 0 5588 5342"
 xmlns:xlink="http://www.w3.org/1999/xlink"
 xmlns:dc="http://purl.org/dc/elements/1.1/"
 xmlns:cc="http://creativecommons.org/ns#"
 xmlns:rdf="http://www.w3.org/1999/02/22-rdf-syntax-ns#"
 xmlns:svg="http://www.w3.org/2000/svg"
 xmlns:sodipodi="http://sodipodi.sourceforge.net/DTD/sodipodi-0.dtd"
 xmlns:inkscape="http://www.inkscape.org/namespaces/inkscape"
 inkscape:version="0.48.4 r9939"
 sodipodi:docname="LOGO-HABLEMOS-WEB2.svg">
 <defs>
  <style type="text/css">
   <![CDATA[
    .str0 {stroke:#FEFEFE;stroke-width:7.62}
    .fil0 {fill:#FEFEFE}
   ]]>
  </style>
 </defs>
 <g id="Capa_x0020_1">
  <metadata id="CorelCorpID_0Corel-Layer"/>
  <sodipodi:namedview pagecolor="#ffffff" bordercolor="#666666" borderopacity="1" objecttolerance="10" gridtolerance="10" guidetolerance="10" inkscape:pageopacity="0" inkscape:pageshadow="2" inkscape:window-width="1301" inkscape:window-height="744" id="namedview24" showgrid="false" inkscape:zoom="1.2421053" inkscape:cx="99.375" inkscape:cy="71.163977" inkscape:window-x="65" inkscape:window-y="24" inkscape:window-maximized="1" inkscape:current-layer="svg2"/>
  <path id="path6" class="fil0 str0" d="M1013 22c300,-61 610,193 615,499 33,281 -189,564 -472,587 -296,39 -581,-222 -578,-518 -21,-262 171,-526 435,-568z"/>
  <path id="path6_0" class="fil0 str0" d="M1013 22c300,-61 610,193 615,499 33,281 -189,564 -472,587 -296,39 -581,-222 -578,-518 -21,-262 171,-526 435,-568z"/>
  <path id="path8" class="fil0 str0" d="M5554 781c-65,355 -190,696 -274,1046 -97,318 -167,645 -273,960 -108,-3 -216,-3 -324,-1 274,-675 588,-1334 871,-2005z"/>
  <path id="path8_1" class="fil0 str0" d="M5554 781c-65,355 -190,696 -274,1046 -97,318 -167,645 -273,960 -108,-3 -216,-3 -324,-1 274,-675 588,-1334 871,-2005z"/>
  <path id="path10" class="fil0 str0" d="M1603 1359c72,-100 155,-190 253,-264 207,198 417,393 629,586 -313,346 -627,692 -932,1046 -261,7 -523,3 -784,2 262,-466 517,-939 834,-1370z"/>
  <path id="path10_2" class="fil0 str0" d="M1603 1359c72,-100 155,-190 253,-264 207,198 417,393 629,586 -313,346 -627,692 -932,1046 -261,7 -523,3 -784,2 262,-466 517,-939 834,-1370z"/>
  <path id="path12" class="fil0 str0" d="M40 2766c0,-472 2,-944 -2,-1416 229,-1 457,-2 686,1 -89,470 -156,944 -236,1415 -150,1 -299,1 -448,0z"/>
  <path id="path12_3" class="fil0 str0" d="M40 2766c0,-472 2,-944 -2,-1416 229,-1 457,-2 686,1 -89,470 -156,944 -236,1415 -150,1 -299,1 -448,0z"/>
  <path id="path14" class="fil0 str0" d="M3429 1390c335,-78 716,74 882,379 102,183 68,440 -110,562 -287,201 -694,116 -940,-111 -148,-132 -234,-346 -171,-541 50,-150 190,-251 339,-289z"/>
  <path id="path14_4" class="fil0 str0" d="M3429 1390c335,-78 716,74 882,379 102,183 68,440 -110,562 -287,201 -694,116 -940,-111 -148,-132 -234,-346 -171,-541 50,-150 190,-251 339,-289z"/>
  <path id="path16" class="fil0 str0" d="M2302 2227c167,-7 335,-2 503,-3 0,180 -1,361 1,542 -168,0 -336,4 -504,-2 3,-179 3,-358 0,-537z"/>
  <path id="path16_5" class="fil0 str0" d="M2302 2227c167,-7 335,-2 503,-3 0,180 -1,361 1,542 -168,0 -336,4 -504,-2 3,-179 3,-358 0,-537z"/>
  <path id="path18" class="fil0 str0" d="M2917 3938c182,-444 354,-892 542,-1333 164,612 328,1225 484,1840 38,-28 57,-71 74,-112 176,-422 360,-842 535,-1265 136,-5 273,-3 410,-2 -171,555 -322,1118 -503,1668 -221,8 -443,3 -665,2 -128,-232 -261,-461 -385,-695 -132,225 -233,468 -355,699 -178,-5 -356,1 -534,-5 -50,-557 -100,-1114 -157,-1670 140,0 280,-1 420,2 4,388 -4,778 3,1166 60,-90 89,-196 131,-295z"/>
  <path id="path18_6" class="fil0 str0" d="M2917 3938c182,-444 354,-892 542,-1333 164,612 328,1225 484,1840 38,-28 57,-71 74,-112 176,-422 360,-842 535,-1265 136,-5 273,-3 410,-2 -171,555 -322,1118 -503,1668 -221,8 -443,3 -665,2 -128,-232 -261,-461 -385,-695 -132,225 -233,468 -355,699 -178,-5 -356,1 -534,-5 -50,-557 -100,-1114 -157,-1670 140,0 280,-1 420,2 4,388 -4,778 3,1166 60,-90 89,-196 131,-295z"/>
  <path id="path20" class="fil0 str0" d="M41 3003c112,0 225,1 338,1 -103,684 -223,1365 -332,2048 -16,-683 -3,-1366 -6,-2049z"/>
  <path id="path20_7" class="fil0 str0" d="M41 3003c112,0 225,1 338,1 -103,684 -223,1365 -332,2048 -16,-683 -3,-1366 -6,-2049z"/>
  <path id="path22" class="fil0 str0" d="M709 3066c216,-2 432,1 648,-2 -184,340 -298,750 -174,1131 88,290 306,520 555,683 327,206 701,324 1079,393 -357,-17 -702,-133 -1028,-274 -400,-179 -780,-456 -978,-857 -166,-331 -179,-717 -102,-1074z"/>
  <path id="path22_8" class="fil0 str0" d="M709 3066c216,-2 432,1 648,-2 -184,340 -298,750 -174,1131 88,290 306,520 555,683 327,206 701,324 1079,393 -357,-17 -702,-133 -1028,-274 -400,-179 -780,-456 -978,-857 -166,-331 -179,-717 -102,-1074z"/>
 </g>
</svg>
