<?xml version="1.0" encoding="UTF-8"?>
<!DOCTYPE svg PUBLIC "-//W3C//DTD SVG 1.1//EN" "http://www.w3.org/Graphics/SVG/1.1/DTD/svg11.dtd">
<!-- Creator: CorelDRAW X7 -->
<svg xmlns="http://www.w3.org/2000/svg" xml:space="preserve" width="67.7332mm" height="50.7998mm" version="1.1" style="shape-rendering:geometricPrecision; text-rendering:geometricPrecision; image-rendering:optimizeQuality; fill-rule:evenodd; clip-rule:evenodd"
viewBox="0 0 6773 5080"
 xmlns:xlink="http://www.w3.org/1999/xlink">
 <defs>
  <style type="text/css">
   <![CDATA[
    .str2 {stroke:#373435;stroke-width:20}
    .str0 {stroke:#00A859;stroke-width:7.6}
    .str1 {stroke:#00A859;stroke-width:7.62}
    .fil2 {fill:none}
    .fil1 {fill:#00A859;fill-rule:nonzero}
    .fil0 {fill:#373435;fill-rule:nonzero}
   ]]>
  </style>
 </defs>
 <g id="Capa_x0020_1">
  <metadata id="CorelCorpID_0Corel-Layer"/>
  <g id="_412016768">
   <path class="fil0" d="M1063 4739c11,-1 20,-3 26,-9 7,-5 12,-13 14,-22 2,-10 3,-26 3,-49 0,-23 1,-38 1,-46 2,-11 4,-20 7,-27 4,-7 8,-13 13,-17 5,-4 11,-8 19,-10 5,-1 13,-2 25,-2l12 0 0 33 -7 0c-14,0 -23,2 -28,7 -4,6 -7,17 -7,35 0,36 0,59 -2,68 -2,15 -7,26 -13,34 -6,8 -15,16 -28,22 15,6 26,16 33,29 7,13 10,34 10,64 0,26 0,42 1,47 1,10 4,16 8,20 5,4 13,6 26,6l7 0 0 32 -12 0c-13,0 -23,-1 -29,-3 -9,-3 -16,-8 -22,-16 -6,-7 -10,-16 -11,-26 -2,-11 -3,-29 -3,-54 0,-25 -1,-42 -4,-51 -2,-10 -6,-17 -13,-23 -6,-5 -15,-8 -26,-8l0 -34z"/>
   <path class="fil0" d="M5643 4739l0 34c-11,0 -19,3 -26,8 -7,6 -11,13 -13,23 -3,9 -4,25 -4,48 0,23 0,38 -1,46 -1,11 -3,21 -7,28 -3,6 -7,12 -12,16 -5,4 -12,8 -19,10 -6,1 -14,2 -26,2l-12 0 0 -32 7 0c14,0 23,-3 28,-8 5,-5 7,-17 7,-35 0,-34 1,-56 2,-65 2,-16 7,-28 13,-37 7,-9 16,-16 28,-21 -16,-8 -27,-18 -33,-30 -7,-13 -10,-34 -10,-63 0,-27 0,-43 -1,-49 -1,-9 -3,-15 -8,-19 -4,-4 -13,-5 -26,-5l-7 0 0 -33 12 0c13,0 23,1 29,3 9,3 16,8 22,16 6,7 10,16 11,27 2,11 3,28 3,53 0,25 1,42 4,52 2,9 6,16 13,22 7,5 15,8 26,9z"/>
   <path class="fil0" d="M1220 4865l0 -252 95 0c17,0 30,0 39,2 12,2 22,6 31,12 8,6 15,14 20,24 5,11 8,22 8,35 0,21 -7,39 -21,54 -13,15 -38,22 -74,22l-65 0 0 103 -33 0zm33 -132l66 0c21,0 36,-4 46,-12 9,-9 13,-20 13,-34 0,-11 -3,-20 -8,-28 -5,-7 -12,-12 -21,-14 -6,-2 -16,-3 -31,-3l-65 0 0 91zm198 132l0 -183 28 0 0 28c7,-13 13,-21 19,-26 6,-4 13,-6 20,-6 11,0 21,4 32,10l-11 29c-7,-5 -15,-7 -22,-7 -7,0 -13,2 -19,6 -5,5 -9,10 -11,17 -3,11 -5,23 -5,37l0 95 -31 0zm106 -91c0,-34 9,-59 28,-75 16,-14 35,-21 58,-21 25,0 45,8 61,25 16,16 24,39 24,68 0,24 -3,42 -10,56 -7,13 -18,23 -31,31 -14,7 -28,11 -44,11 -26,0 -47,-8 -62,-24 -16,-17 -24,-41 -24,-71zm32 0c0,23 5,41 15,52 10,12 23,18 39,18 15,0 28,-6 38,-18 11,-12 16,-29 16,-53 0,-23 -6,-40 -16,-52 -10,-11 -23,-17 -38,-17 -16,0 -29,6 -39,17 -10,12 -15,29 -15,53zm170 106l30 5c1,9 5,16 11,20 7,6 18,9 31,9 15,0 26,-3 33,-9 8,-6 14,-14 16,-24 2,-6 3,-20 3,-40 -14,16 -31,24 -51,24 -25,0 -45,-9 -59,-27 -13,-18 -20,-40 -20,-65 0,-18 3,-34 9,-49 7,-14 16,-26 28,-34 12,-8 26,-12 42,-12 22,0 39,9 53,27l0 -23 29 0 0 158c0,29 -3,49 -9,61 -5,12 -15,21 -27,28 -13,7 -28,10 -47,10 -21,0 -39,-5 -52,-14 -14,-10 -20,-25 -20,-45zm26 -109c0,24 4,41 14,52 9,11 21,16 36,16 14,0 26,-5 36,-16 9,-11 14,-28 14,-51 0,-23 -5,-40 -15,-51 -10,-11 -22,-17 -36,-17 -14,0 -25,6 -35,17 -10,11 -14,28 -14,50zm176 94l0 -183 28 0 0 28c7,-13 13,-21 19,-26 6,-4 13,-6 20,-6 11,0 21,4 32,10l-11 29c-7,-5 -15,-7 -22,-7 -7,0 -13,2 -19,6 -5,5 -9,10 -11,17 -4,11 -5,23 -5,37l0 95 -31 0zm237 -23c-11,10 -23,17 -33,21 -11,4 -22,6 -34,6 -21,0 -36,-5 -47,-15 -11,-9 -16,-22 -16,-37 0,-9 2,-17 6,-25 4,-7 9,-13 16,-17 7,-5 14,-8 22,-11 7,-1 16,-3 28,-4 25,-3 44,-7 55,-11 1,-4 1,-7 1,-8 0,-12 -3,-21 -9,-27 -8,-7 -20,-10 -36,-10 -14,0 -25,3 -32,8 -7,5 -12,14 -15,27l-31 -4c3,-13 7,-24 14,-32 6,-8 15,-14 27,-18 12,-5 26,-7 42,-7 16,0 28,2 38,6 10,3 17,8 22,14 4,5 8,12 9,21 1,5 2,15 2,28l0 42c0,28 1,46 2,54 1,8 4,15 8,22l-33 0c-3,-6 -5,-14 -6,-23zm-2 -68c-12,4 -29,8 -51,11 -13,2 -22,4 -27,6 -6,3 -10,6 -13,10 -2,5 -4,10 -4,15 0,8 3,15 9,21 7,5 16,8 28,8 12,0 23,-3 32,-8 9,-5 16,-12 20,-21 4,-7 5,-18 5,-31l1 -11zm79 91l0 -183 28 0 0 26c5,-9 13,-16 22,-22 10,-5 21,-8 33,-8 13,0 25,3 33,9 9,5 15,13 18,23 15,-21 34,-32 57,-32 18,0 33,5 42,15 10,10 15,26 15,47l0 125 -31 0 0 -115c0,-12 -1,-21 -3,-27 -2,-5 -6,-10 -11,-13 -5,-3 -12,-5 -19,-5 -13,0 -23,4 -32,13 -8,8 -13,22 -13,41l0 106 -31 0 0 -119c0,-13 -2,-24 -7,-31 -5,-6 -14,-10 -25,-10 -9,0 -17,2 -24,7 -8,5 -13,11 -16,20 -4,9 -5,22 -5,38l0 95 -31 0zm401 74l0 -331 27 0 0 331 -27 0zm184 -74l0 -252 87 0c20,0 35,1 45,3 15,4 27,10 37,18 13,12 23,26 30,44 7,17 10,37 10,60 0,19 -2,36 -7,51 -4,14 -10,27 -17,36 -7,10 -15,18 -23,23 -8,6 -18,10 -30,13 -12,3 -25,4 -41,4l-91 0zm34 -29l53 0c17,0 30,-2 40,-5 9,-3 17,-8 22,-13 8,-8 14,-19 19,-32 4,-14 6,-30 6,-49 0,-26 -4,-47 -13,-61 -8,-14 -19,-24 -31,-29 -9,-3 -24,-5 -43,-5l-53 0 0 194zm342 -30l32 4c-5,19 -14,33 -28,44 -14,10 -31,15 -52,15 -27,0 -48,-8 -64,-25 -15,-16 -23,-39 -23,-69 0,-30 8,-54 23,-71 16,-17 37,-26 62,-26 24,0 44,9 60,25 15,17 23,40 23,70 0,2 0,5 0,9l-137 0c2,20 7,35 18,46 10,10 22,16 38,16 11,0 21,-3 29,-9 8,-6 14,-16 19,-29zm-102 -50l102 0c-1,-15 -5,-27 -11,-34 -10,-12 -23,-18 -39,-18 -14,0 -26,4 -36,14 -9,9 -15,22 -16,38zm161 55l31 -5c1,12 6,21 14,28 8,6 19,10 33,10 14,0 25,-3 32,-9 7,-6 10,-13 10,-20 0,-7 -3,-13 -9,-17 -5,-3 -15,-6 -32,-10 -23,-6 -38,-11 -47,-15 -9,-4 -16,-10 -20,-18 -5,-7 -7,-15 -7,-24 0,-8 2,-16 6,-23 3,-7 9,-12 15,-17 5,-4 11,-7 20,-9 8,-2 17,-4 26,-4 15,0 27,2 38,6 11,5 19,10 24,17 5,7 9,17 11,29l-31 4c-1,-10 -5,-17 -11,-22 -7,-6 -16,-8 -28,-8 -15,0 -25,2 -31,7 -6,4 -9,10 -9,16 0,4 1,8 4,11 2,3 6,6 12,8 3,2 12,4 27,8 22,6 37,11 46,15 9,3 15,9 20,16 5,7 8,16 8,26 0,11 -3,20 -9,29 -6,10 -15,17 -26,22 -12,5 -25,7 -39,7 -24,0 -42,-5 -54,-15 -13,-10 -21,-24 -24,-43zm189 -163l0 -35 31 0 0 35 -31 0zm0 217l0 -183 31 0 0 183 -31 0zm72 15l30 5c1,9 5,16 11,20 7,6 18,9 31,9 15,0 26,-3 34,-9 7,-6 13,-14 15,-24 2,-6 3,-20 3,-40 -14,16 -31,24 -51,24 -25,0 -45,-9 -58,-27 -14,-18 -21,-40 -21,-65 0,-18 3,-34 9,-49 7,-14 16,-26 28,-34 12,-8 26,-12 42,-12 22,0 40,9 54,27l0 -23 28 0 0 158c0,29 -3,49 -9,61 -5,12 -15,21 -27,28 -13,7 -28,10 -47,10 -21,0 -39,-5 -52,-14 -14,-10 -20,-25 -20,-45zm26 -109c0,24 4,41 14,52 9,11 21,16 36,16 14,0 26,-5 36,-16 9,-11 14,-28 14,-51 0,-23 -5,-40 -15,-51 -10,-11 -22,-17 -36,-17 -14,0 -25,6 -35,17 -10,11 -14,28 -14,50zm176 94l0 -183 28 0 0 26c13,-20 33,-30 58,-30 11,0 21,2 31,6 9,4 16,9 20,16 5,6 8,14 10,23 1,5 2,15 2,30l0 112 -31 0 0 -111c0,-13 -2,-22 -4,-28 -2,-7 -7,-12 -13,-15 -6,-4 -13,-6 -21,-6 -14,0 -25,4 -34,13 -10,8 -15,24 -15,47l0 100 -31 0zm304 74l0 -331 27 0 0 331 -27 0zm184 -74l0 -252 87 0c20,0 35,1 45,3 14,4 27,10 37,18 13,12 23,26 30,44 6,17 10,37 10,60 0,19 -3,36 -7,51 -4,14 -10,27 -17,36 -7,10 -15,18 -23,23 -9,6 -19,10 -30,13 -12,3 -26,4 -41,4l-91 0zm33 -29l54 0c17,0 30,-2 39,-5 10,-3 17,-8 23,-13 8,-8 14,-19 19,-32 4,-14 6,-30 6,-49 0,-26 -4,-47 -13,-61 -8,-14 -19,-24 -31,-29 -9,-3 -24,-5 -44,-5l-53 0 0 194zm343 -30l32 4c-5,19 -15,33 -28,44 -14,10 -31,15 -53,15 -26,0 -47,-8 -63,-25 -16,-16 -23,-39 -23,-69 0,-30 7,-54 23,-71 16,-17 37,-26 62,-26 24,0 44,9 60,25 15,17 23,40 23,70 0,2 0,5 0,9l-137 0c1,20 7,35 17,46 11,10 23,16 38,16 12,0 22,-3 30,-9 8,-6 14,-16 19,-29zm-102 -50l102 0c-1,-15 -5,-27 -12,-34 -10,-12 -22,-18 -38,-18 -14,0 -26,4 -36,14 -10,9 -15,22 -16,38zm223 109l-69 -183 33 0 39 110c5,12 8,24 12,37 3,-10 7,-22 12,-35l40 -112 32 0 -69 183 -30 0zm251 -59l32 4c-5,19 -14,33 -28,44 -13,10 -31,15 -52,15 -27,0 -48,-8 -63,-25 -16,-16 -24,-39 -24,-69 0,-30 8,-54 24,-71 16,-17 36,-26 61,-26 25,0 45,9 60,25 16,17 23,40 23,70 0,2 0,5 0,9l-136 0c1,20 7,35 17,46 10,10 23,16 38,16 11,0 21,-3 29,-9 8,-6 15,-16 19,-29zm-101 -50l102 0c-2,-15 -6,-27 -12,-34 -10,-12 -23,-18 -38,-18 -15,0 -27,4 -36,14 -10,9 -15,22 -16,38zm172 109l0 -252 31 0 0 252 -31 0zm67 -91c0,-34 10,-59 29,-75 15,-14 34,-21 57,-21 25,0 46,8 62,25 16,16 24,39 24,68 0,24 -4,42 -11,56 -7,13 -17,23 -31,31 -13,7 -28,11 -44,11 -26,0 -46,-8 -62,-24 -16,-17 -24,-41 -24,-71zm32 0c0,23 5,41 15,52 11,12 24,18 39,18 16,0 28,-6 39,-18 10,-12 15,-29 15,-53 0,-23 -5,-40 -15,-52 -11,-11 -24,-17 -39,-17 -15,0 -28,6 -39,17 -10,12 -15,29 -15,53zm176 161l0 -253 28 0 0 24c7,-9 15,-16 23,-21 8,-4 18,-7 30,-7 16,0 30,4 42,12 12,8 21,20 27,34 6,15 9,31 9,48 0,19 -3,36 -10,51 -7,15 -17,26 -29,34 -13,8 -27,12 -41,12 -10,0 -19,-2 -28,-6 -8,-5 -15,-10 -20,-17l0 89 -31 0zm28 -160c0,23 5,41 15,52 9,11 21,17 34,17 14,0 26,-6 35,-18 10,-11 15,-29 15,-54 0,-23 -5,-40 -14,-52 -10,-12 -21,-17 -35,-17 -13,0 -24,6 -34,18 -11,12 -16,30 -16,54z"/>
   <path class="fil1" d="M1037 4730c11,-1 20,-3 26,-9 7,-5 12,-13 14,-22 2,-10 3,-26 3,-49 0,-23 1,-38 1,-46 2,-11 4,-20 7,-27 4,-7 8,-13 13,-17 5,-4 11,-8 19,-10 5,-1 13,-2 25,-2l12 0 0 33 -7 0c-14,0 -23,2 -28,7 -4,6 -7,17 -7,35 0,36 0,59 -2,68 -2,15 -7,26 -13,34 -6,8 -15,16 -28,22 15,6 26,16 33,29 7,13 10,34 10,64 0,26 0,42 1,47 1,10 4,16 8,20 5,4 13,6 26,6l7 0 0 32 -12 0c-13,0 -23,-1 -29,-3 -9,-3 -16,-8 -22,-16 -6,-7 -10,-16 -11,-26 -2,-11 -3,-29 -3,-54 0,-25 -1,-42 -4,-51 -2,-10 -6,-17 -13,-23 -6,-5 -15,-8 -26,-8l0 -34z"/>
   <path class="fil1" d="M5617 4730l0 34c-11,0 -19,3 -26,8 -7,6 -11,13 -13,23 -3,9 -4,25 -4,48 0,23 0,38 -1,46 -1,11 -3,21 -7,28 -3,6 -7,12 -12,16 -5,4 -12,8 -19,10 -6,1 -14,2 -26,2l-12 0 0 -32 7 0c14,0 23,-3 28,-8 5,-5 7,-17 7,-35 0,-34 1,-56 2,-65 2,-16 7,-28 13,-37 7,-9 16,-16 28,-21 -16,-8 -27,-18 -33,-30 -7,-13 -10,-34 -10,-63 0,-27 0,-43 -1,-49 -1,-9 -3,-15 -8,-19 -4,-4 -13,-5 -26,-5l-7 0 0 -33 12 0c13,0 23,1 29,3 9,3 16,8 22,16 6,7 10,16 11,27 2,11 3,28 3,53 0,25 1,42 4,52 2,9 6,16 13,22 7,5 15,8 26,9z"/>
   <path class="fil1" d="M1195 4856l0 -252 95 0c17,0 30,0 39,2 12,2 22,6 31,12 8,6 15,14 20,24 5,11 8,22 8,35 0,21 -7,39 -21,54 -13,15 -38,22 -74,22l-65 0 0 103 -33 0zm33 -132l66 0c21,0 36,-4 46,-12 9,-9 13,-20 13,-34 0,-11 -3,-20 -8,-28 -5,-7 -12,-12 -21,-14 -6,-2 -16,-3 -31,-3l-65 0 0 91zm198 132l0 -183 28 0 0 28c7,-13 13,-21 19,-26 6,-4 13,-6 20,-6 11,0 21,4 32,10l-11 29c-7,-5 -15,-7 -22,-7 -7,0 -13,2 -19,6 -5,5 -9,10 -11,17 -3,11 -5,23 -5,37l0 95 -31 0zm106 -91c0,-34 9,-59 28,-75 16,-14 35,-21 58,-21 25,0 45,8 61,25 16,16 24,39 24,68 0,24 -3,42 -10,56 -7,13 -18,23 -31,31 -14,7 -28,11 -44,11 -26,0 -47,-8 -62,-24 -16,-17 -24,-41 -24,-71zm32 0c0,23 5,41 15,52 10,12 23,18 39,18 15,0 28,-6 38,-18 11,-12 16,-29 16,-53 0,-23 -6,-40 -16,-52 -10,-11 -23,-17 -38,-17 -16,0 -29,6 -39,17 -10,12 -15,29 -15,53zm170 106l30 5c1,9 5,16 11,20 7,6 18,9 31,9 15,0 26,-3 33,-9 8,-6 14,-14 16,-24 2,-6 3,-20 3,-40 -14,16 -31,24 -51,24 -25,0 -45,-9 -59,-27 -13,-18 -20,-40 -20,-65 0,-18 3,-34 9,-49 7,-14 16,-26 28,-34 12,-8 26,-12 42,-12 22,0 39,9 53,27l0 -23 29 0 0 158c0,29 -3,49 -9,61 -5,12 -15,21 -27,28 -13,7 -28,10 -47,10 -21,0 -39,-5 -52,-14 -14,-10 -20,-25 -20,-45zm26 -109c0,24 4,41 14,52 9,11 21,16 36,16 14,0 26,-5 36,-16 9,-11 14,-28 14,-51 0,-23 -5,-40 -15,-51 -10,-11 -22,-17 -36,-17 -14,0 -25,6 -35,17 -10,11 -14,28 -14,50zm176 94l0 -183 28 0 0 28c7,-13 13,-21 19,-26 6,-4 13,-6 20,-6 11,0 21,4 32,10l-11 29c-7,-5 -15,-7 -22,-7 -7,0 -13,2 -19,6 -5,5 -9,10 -11,17 -4,11 -5,23 -5,37l0 95 -31 0zm237 -23c-11,10 -23,17 -33,21 -11,4 -22,6 -34,6 -21,0 -36,-5 -47,-15 -11,-9 -16,-22 -16,-37 0,-9 2,-17 6,-25 4,-7 9,-13 16,-17 7,-5 14,-8 22,-11 7,-1 16,-3 28,-4 25,-3 44,-7 55,-11 1,-4 1,-7 1,-8 0,-12 -3,-21 -9,-27 -8,-7 -20,-10 -36,-10 -14,0 -25,3 -32,8 -7,5 -12,14 -15,27l-31 -4c3,-13 7,-24 14,-32 6,-8 15,-14 27,-18 12,-5 26,-7 42,-7 16,0 28,2 38,6 10,3 17,8 22,14 4,5 8,12 9,21 1,5 2,15 2,28l0 42c0,28 1,46 2,54 1,8 4,15 8,22l-33 0c-3,-6 -5,-14 -6,-23zm-2 -68c-12,4 -29,8 -51,11 -13,2 -22,4 -27,6 -6,3 -10,6 -13,10 -2,5 -4,10 -4,15 0,8 3,15 9,21 7,5 16,8 28,8 12,0 23,-3 32,-8 9,-5 16,-12 20,-21 4,-7 5,-18 5,-31l1 -11zm79 91l0 -183 28 0 0 26c5,-9 13,-16 22,-22 10,-5 21,-8 33,-8 13,0 25,3 33,9 9,5 15,13 18,23 15,-21 34,-32 57,-32 18,0 33,5 42,15 10,10 15,26 15,47l0 125 -31 0 0 -115c0,-12 -1,-21 -3,-27 -2,-5 -6,-10 -11,-13 -5,-3 -12,-5 -19,-5 -13,0 -23,4 -32,13 -8,8 -13,22 -13,41l0 106 -31 0 0 -119c0,-13 -2,-24 -7,-31 -5,-6 -14,-10 -25,-10 -9,0 -17,2 -24,7 -8,5 -13,11 -16,20 -4,9 -5,22 -5,38l0 95 -31 0zm401 74l0 -331 27 0 0 331 -27 0zm184 -74l0 -252 87 0c20,0 35,1 45,3 15,4 27,10 37,18 13,12 23,26 30,44 7,17 10,37 10,60 0,19 -2,36 -7,51 -4,14 -10,27 -17,36 -7,10 -15,18 -23,23 -8,6 -18,10 -30,13 -12,3 -25,4 -41,4l-91 0zm34 -29l53 0c17,0 30,-2 40,-5 9,-3 17,-8 22,-13 8,-8 14,-19 19,-32 4,-14 6,-30 6,-49 0,-26 -4,-47 -13,-61 -8,-14 -19,-24 -31,-29 -9,-3 -24,-5 -43,-5l-53 0 0 194zm342 -30l32 4c-5,19 -14,33 -28,44 -14,10 -31,15 -52,15 -27,0 -48,-8 -64,-25 -15,-16 -23,-39 -23,-69 0,-30 8,-54 23,-71 16,-17 37,-26 62,-26 24,0 44,9 60,25 15,17 23,40 23,70 0,2 0,5 0,9l-137 0c2,20 7,35 18,46 10,10 22,16 38,16 11,0 21,-3 29,-9 8,-6 14,-16 19,-29zm-102 -50l102 0c-1,-15 -5,-27 -11,-34 -10,-12 -23,-18 -39,-18 -14,0 -26,4 -36,14 -9,9 -15,22 -16,38zm161 55l31 -5c1,12 6,21 14,28 8,6 19,10 33,10 14,0 25,-3 32,-9 7,-6 10,-13 10,-20 0,-7 -3,-13 -9,-17 -5,-3 -15,-6 -32,-10 -23,-6 -38,-11 -47,-15 -9,-4 -16,-10 -20,-18 -5,-7 -7,-15 -7,-24 0,-8 2,-16 6,-23 3,-7 9,-12 15,-17 5,-4 11,-7 20,-9 8,-2 17,-4 26,-4 15,0 27,2 38,6 11,5 19,10 24,17 5,7 9,17 11,29l-31 4c-1,-10 -5,-17 -11,-22 -7,-6 -16,-8 -28,-8 -15,0 -25,2 -31,7 -6,4 -9,10 -9,16 0,4 1,8 4,11 2,3 6,6 12,8 3,2 12,4 27,8 22,6 37,11 46,15 9,3 15,9 20,16 5,7 8,16 8,26 0,11 -3,20 -9,29 -6,10 -15,17 -26,22 -12,5 -25,7 -39,7 -24,0 -42,-5 -54,-15 -13,-10 -21,-24 -24,-43zm189 -163l0 -35 31 0 0 35 -31 0zm0 217l0 -183 31 0 0 183 -31 0zm72 15l30 5c1,9 5,16 11,20 7,6 18,9 31,9 15,0 26,-3 34,-9 7,-6 13,-14 15,-24 2,-6 3,-20 3,-40 -14,16 -31,24 -51,24 -25,0 -45,-9 -58,-27 -14,-18 -21,-40 -21,-65 0,-18 3,-34 9,-49 7,-14 16,-26 28,-34 12,-8 26,-12 42,-12 22,0 40,9 54,27l0 -23 28 0 0 158c0,29 -3,49 -9,61 -5,12 -15,21 -27,28 -13,7 -28,10 -47,10 -21,0 -39,-5 -52,-14 -14,-10 -20,-25 -20,-45zm26 -109c0,24 4,41 14,52 9,11 21,16 36,16 14,0 26,-5 36,-16 9,-11 14,-28 14,-51 0,-23 -5,-40 -15,-51 -10,-11 -22,-17 -36,-17 -14,0 -25,6 -35,17 -10,11 -14,28 -14,50zm176 94l0 -183 28 0 0 26c13,-20 33,-30 58,-30 11,0 21,2 31,6 9,4 16,9 20,16 5,6 8,14 10,23 1,5 2,15 2,30l0 112 -31 0 0 -111c0,-13 -2,-22 -4,-28 -2,-7 -7,-12 -13,-15 -6,-4 -13,-6 -21,-6 -14,0 -25,4 -34,13 -10,8 -15,24 -15,47l0 100 -31 0zm304 74l0 -331 27 0 0 331 -27 0zm184 -74l0 -252 87 0c20,0 35,1 45,3 14,4 27,10 37,18 13,12 23,26 30,44 6,17 10,37 10,60 0,19 -3,36 -7,51 -4,14 -10,27 -17,36 -7,10 -15,18 -23,23 -9,6 -19,10 -30,13 -12,3 -26,4 -41,4l-91 0zm33 -29l54 0c17,0 30,-2 39,-5 10,-3 17,-8 23,-13 8,-8 14,-19 19,-32 4,-14 6,-30 6,-49 0,-26 -4,-47 -13,-61 -8,-14 -19,-24 -31,-29 -9,-3 -24,-5 -44,-5l-53 0 0 194zm343 -30l32 4c-5,19 -15,33 -28,44 -14,10 -31,15 -53,15 -26,0 -47,-8 -63,-25 -16,-16 -23,-39 -23,-69 0,-30 7,-54 23,-71 16,-17 37,-26 62,-26 24,0 44,9 60,25 15,17 23,40 23,70 0,2 0,5 0,9l-137 0c1,20 7,35 17,46 11,10 23,16 38,16 12,0 22,-3 30,-9 8,-6 14,-16 19,-29zm-102 -50l102 0c-1,-15 -5,-27 -12,-34 -10,-12 -22,-18 -38,-18 -14,0 -26,4 -36,14 -10,9 -15,22 -16,38zm223 109l-69 -183 33 0 39 110c5,12 8,24 12,37 3,-10 7,-22 12,-35l40 -112 32 0 -69 183 -30 0zm251 -59l32 4c-5,19 -14,33 -28,44 -13,10 -31,15 -52,15 -27,0 -48,-8 -63,-25 -16,-16 -24,-39 -24,-69 0,-30 8,-54 24,-71 16,-17 36,-26 61,-26 25,0 45,9 60,25 16,17 23,40 23,70 0,2 0,5 0,9l-136 0c1,20 7,35 17,46 10,10 23,16 38,16 11,0 21,-3 29,-9 8,-6 15,-16 19,-29zm-101 -50l102 0c-2,-15 -6,-27 -12,-34 -10,-12 -23,-18 -38,-18 -15,0 -27,4 -36,14 -10,9 -15,22 -16,38zm172 109l0 -252 31 0 0 252 -31 0zm67 -91c0,-34 10,-59 29,-75 15,-14 34,-21 57,-21 25,0 46,8 62,25 16,16 24,39 24,68 0,24 -4,42 -11,56 -7,13 -17,23 -31,31 -13,7 -28,11 -44,11 -26,0 -46,-8 -62,-24 -16,-17 -24,-41 -24,-71zm32 0c0,23 5,41 15,52 11,12 24,18 39,18 16,0 28,-6 39,-18 10,-12 15,-29 15,-53 0,-23 -5,-40 -15,-52 -11,-11 -24,-17 -39,-17 -15,0 -28,6 -39,17 -10,12 -15,29 -15,53zm176 161l0 -253 28 0 0 24c7,-9 15,-16 23,-21 8,-4 18,-7 30,-7 16,0 30,4 42,12 12,8 21,20 27,34 6,15 9,31 9,48 0,19 -3,36 -10,51 -7,15 -17,26 -29,34 -13,8 -27,12 -41,12 -10,0 -19,-2 -28,-6 -8,-5 -15,-10 -20,-17l0 89 -31 0zm28 -160c0,23 5,41 15,52 9,11 21,17 34,17 14,0 26,-6 35,-18 10,-11 15,-29 15,-54 0,-23 -5,-40 -14,-52 -10,-12 -21,-17 -35,-17 -13,0 -24,6 -34,18 -11,12 -16,30 -16,54z"/>
   <g id="_360697472">
    <path class="fil0" d="M253 3278l344 0c244,0 329,-250 329,-461 0,-190 -44,-468 -329,-468l-344 0 0 929zm93 -98l0 -737 251 0c147,0 235,102 235,373 0,195 -68,364 -235,364l-251 0zm688 -61c0,108 76,168 168,168 115,0 279,-89 281,-89l24 81 70 0 0 -491c0,-140 -89,-197 -194,-196 -125,1 -238,13 -328,38l0 69c123,-9 233,-16 324,-16 64,0 104,27 104,105 2,1 0,85 0,85 0,1 -281,0 -281,0 -105,0 -168,67 -168,169l0 77zm93 -6l0 -64c0,-41 21,-77 75,-82l281 -21 0 182c0,0 -180,65 -281,65 -43,0 -75,-19 -75,-80z"/>
    <path class="fil0" d="M4163 3619l91 0 0 -383c81,33 193,50 250,50 192,0 223,-177 223,-350 0,-155 -38,-342 -223,-342 -86,0 -217,59 -250,83l-24 -75 -67 0 0 1017zm91 -460l0 -412c69,-28 150,-59 250,-59 83,0 129,83 129,248 0,207 -47,256 -129,256 -97,0 -162,-10 -250,-33zm587 -210c0,241 70,334 297,334 227,0 297,-84 297,-334 0,-268 -70,-353 -297,-353 -221,0 -297,77 -297,353zm94 0c0,-243 61,-259 203,-259 149,0 203,17 203,259 0,222 -66,240 -203,240 -131,0 -203,-16 -203,-240zm640 326l94 0 0 -518c98,-47 147,-73 249,-73 65,0 114,38 114,122l0 469 94 0 0 -469c0,-111 -74,-216 -208,-216 -103,0 -172,46 -249,91l-28 -79 -66 0 0 673zm627 -580l126 0 0 340c0,179 70,240 168,240l111 0 0 -67c-8,0 -113,-27 -113,-27 -43,-10 -72,-36 -72,-146l0 -339 197 0 0 -94 -197 0 0 -188 -71 0 -23 188 -126 21 0 72z"/>
    <path class="fil0" d="M3418 2379l0 119 -339 -338 120 -120 339 339 0 119 -120 -119zm120 0l60 60 -60 59 0 -119zm-399 398l-60 -60 339 -338 120 119 -339 339 -60 -60zm-60 -398l0 119 -338 -338 120 -120 338 339 0 119 -120 -119zm120 0l60 60 -60 59 0 -119zm-398 398l-60 -60 338 -338 120 119 -338 339 -60 -60zm1023 -254l-426 0 0 -169 426 0 0 169z"/>
    <path class="fil0" d="M1700 2169l-149 79 -13 -24 -12 -23 -11 -23 -11 -22 -10 -21 -9 -21 -8 -20 -7 -19 -7 -19 -6 -18 -5 -18 -4 -17 -3 -16 -2 -16 -1 -15 -1 -15 1 -15 1 -14 3 -13 3 -13 5 -13 6 -12 6 -12 8 -12 9 -11 10 -11 11 -11 12 -10 13 -10 15 -10 15 -10 17 -9 0 0 -79 -149 306 125 -68 323 -79 -149 -7 3 -5 4 -6 4 -5 3 -4 4 -4 4 -3 4 -3 5 -3 4 -1 5 -2 5 -1 5 0 6 0 6 1 7 1 7 2 7 2 8 3 8 3 9 3 9 5 10 4 11 5 11 6 12 6 12 7 14 7 13 7 15 9 16 8 16 9 17 0 0zm533 1368l-704 -1328 149 -79 705 1327 5 69 -155 11zm155 -11l-66 179 -89 -168 155 -11zm993 -2729l-993 2729 -160 -58 993 -2729 161 3 -1 55zm-160 -58l86 -234 75 237 -161 -3zm953 3077l-954 -3023 162 -51 954 3023 -162 51zm149 -94l0 0 6 18 6 18 5 16 5 16 5 15 5 14 5 13 4 12 4 12 5 10 4 10 4 9 4 9 4 8 4 7 4 6 4 6 4 5 5 4 4 4 4 3 5 3 5 2 5 1 5 1 5 1 6 0 5 -1 7 0 6 -2 7 -2 7 -2 -51 -161 278 178 -126 306 -50 -161 0 0 -19 6 -18 4 -17 3 -17 3 -16 1 -15 1 -15 -1 -14 -2 -13 -2 -14 -4 -12 -4 -13 -6 -11 -7 -12 -7 -11 -9 -11 -10 -10 -11 -10 -11 -10 -13 -9 -14 -9 -15 -10 -15 -8 -17 -9 -18 -9 -19 -8 -20 -9 -21 -8 -22 -8 -23 -9 -23 -8 -25 -8 -26 161 -51z"/>
    <path class="fil1" d="M3335 2382l0 119 -339 -338 120 -120 338 339 0 119 -119 -119zm119 0l60 60 -60 59 0 -119zm-398 398l-60 -60 339 -338 119 119 -338 339 -60 -60zm-60 -398l0 119 -339 -338 120 -120 339 339 0 119 -120 -119zm120 0l60 60 -60 59 0 -119zm-399 398l-60 -60 339 -338 120 119 -339 339 -60 -60zm1024 -254l-426 0 0 -169 426 0 0 169z"/>
    <path class="fil1" d="M1617 2172l-150 79 -13 -24 -12 -23 -11 -23 -10 -22 -10 -21 -9 -21 -8 -20 -8 -19 -6 -19 -6 -18 -5 -18 -4 -16 -3 -17 -2 -16 -2 -15 0 -15 0 -15 2 -13 2 -14 4 -13 5 -13 5 -12 7 -12 7 -12 9 -11 10 -11 11 -10 12 -11 14 -10 14 -10 16 -9 17 -10 0 0 -79 -149 306 125 -68 324 -80 -150 -6 3 -6 4 -5 4 -5 3 -5 4 -4 4 -3 4 -3 5 -2 4 -2 5 -1 5 -1 5 0 6 0 6 0 7 2 7 1 7 2 8 3 8 3 9 4 9 4 10 5 11 5 11 5 12 7 12 6 14 7 13 8 15 8 16 9 16 9 17 0 0zm533 1368l-705 -1328 150 -79 704 1327 5 69 -154 11zm154 -11l-65 179 -89 -168 154 -11zm993 -2729l-993 2729 -159 -58 993 -2729 160 3 -1 55zm-159 -58l85 -234 75 237 -160 -3zm953 3077l-954 -3023 161 -51 954 3023 -161 51zm149 -94l0 0 6 18 5 18 6 16 5 16 5 15 4 14 5 13 5 12 4 12 4 10 4 10 4 9 5 9 4 8 4 7 4 6 4 6 4 5 4 4 5 4 4 3 5 3 4 2 5 1 5 1 6 1 5 0 6 -1 6 0 6 -2 7 -2 7 -2 -51 -161 278 178 -125 306 -51 -161 0 0 -18 6 -18 4 -18 3 -16 3 -16 1 -15 1 -15 -1 -14 -2 -14 -2 -13 -4 -13 -4 -12 -6 -12 -7 -11 -7 -11 -9 -11 -10 -10 -11 -10 -11 -10 -13 -10 -14 -9 -15 -9 -15 -9 -17 -9 -18 -8 -19 -9 -20 -8 -21 -8 -22 -9 -23 -8 -23 -8 -25 -9 -26 162 -51z"/>
    <path class="fil1 str0" d="M168 3275l345 0c244,0 329,-250 329,-460 0,-190 -45,-468 -329,-468l-345 0 0 928zm94 -97l0 -737 251 0c146,0 235,101 235,373 0,195 -68,364 -235,364l-251 0zm687 -61c0,108 76,167 169,167 115,0 278,-89 281,-89l24 82 70 0 0 -492c0,-140 -89,-197 -194,-195 -126,1 -238,12 -328,38l0 68c123,-9 233,-15 324,-15 63,0 104,27 104,104 1,1 0,85 0,85 0,2 -281,0 -281,0 -105,0 -169,68 -169,169l0 78zm94 -7l0 -63c0,-41 20,-78 75,-83l281 -20 0 182c0,0 -180,64 -281,64 -43,0 -75,-19 -75,-80z"/>
    <path class="fil1 str1" d="M4092 3619l91 0 0 -383c81,33 193,50 250,50 192,0 223,-177 223,-350 0,-155 -38,-342 -223,-342 -86,0 -217,59 -250,83l-24 -75 -67 0 0 1017zm91 -460l0 -412c69,-28 150,-59 250,-59 83,0 129,83 129,248 0,207 -47,256 -129,256 -97,0 -162,-10 -250,-33zm587 -210c0,241 70,334 297,334 227,0 297,-84 297,-334 0,-268 -70,-353 -297,-353 -221,0 -297,77 -297,353zm94 0c0,-243 61,-259 203,-259 149,0 203,17 203,259 0,222 -66,240 -203,240 -131,0 -203,-16 -203,-240zm640 326l94 0 0 -518c98,-47 147,-73 249,-73 65,0 114,38 114,122l0 469 94 0 0 -469c0,-111 -74,-216 -208,-216 -103,0 -172,46 -249,91l-28 -79 -66 0 0 673zm627 -580l126 0 0 340c0,179 70,240 168,240l111 0 0 -67c-8,0 -113,-27 -113,-27 -43,-10 -72,-36 -72,-146l0 -339 197 0 0 -94 -197 0 0 -188 -71 0 -23 188 -126 21 0 72z"/>
    <line class="fil2 str2" x1="2759" y1="4046" x2="2759" y2= "4046" />
   </g>
  </g>
 </g>
</svg>
